<svg width="104" height="105" viewBox="0 0 104 105" fill="none" xmlns="http://www.w3.org/2000/svg">
<path fill-rule="evenodd" clip-rule="evenodd" d="M67.0146 92.9563C66.991 93.0643 66.9521 93.1744 66.9202 93.2814C66.9544 93.1672 66.9922 93.054 67.0158 92.9378C67.0146 92.945 67.0146 92.9501 67.0146 92.9563ZM66.7693 93.7496C66.7256 93.8546 66.6678 93.9595 66.6171 94.0624C66.6702 93.9544 66.7292 93.8453 66.774 93.7342C66.7716 93.7394 66.7704 93.7445 66.7693 93.7496ZM66.3635 94.5397C66.3033 94.6365 66.2302 94.7301 66.1641 94.8247C66.2337 94.728 66.308 94.6282 66.3694 94.5264C66.367 94.5315 66.3658 94.5356 66.3635 94.5397ZM65.7595 95.3548C65.6969 95.4279 65.6273 95.4999 65.5601 95.5709C65.6297 95.4968 65.7017 95.4217 65.7654 95.3456C65.763 95.3486 65.7618 95.3507 65.7595 95.3548ZM65.2204 95.935C65.0942 96.0554 64.9444 96.1716 64.804 96.2899C64.9479 96.1685 65.1001 96.0492 65.2286 95.9247C65.2251 95.9288 65.2239 95.9309 65.2204 95.935ZM64.0278 96.8864C63.9712 96.9255 63.9157 96.9646 63.8579 97.0057C63.9181 96.9635 63.9759 96.9214 64.0349 96.8812C64.0325 96.8823 64.0301 96.8843 64.0278 96.8864ZM67.0748 92.4884C67.2953 90.2311 65.7111 87.9348 62.2878 86.2125C55.8789 82.985 45.5276 82.985 39.1647 86.2084C35.995 87.8154 34.4143 89.9204 34.4178 92.0275C34.4178 92.0203 34.4155 92.0131 34.4155 92.0069L34.406 94.9216C34.4001 97.0503 36.0103 99.183 39.2366 100.808C39.6224 101 40.0234 101.182 40.4351 101.354C40.5755 101.409 40.7218 101.462 40.8657 101.516C41.1075 101.61 41.3458 101.708 41.5947 101.793C41.623 101.803 41.6549 101.81 41.6832 101.819C42.2518 102.012 42.8404 102.183 43.4432 102.337C43.4892 102.35 43.5328 102.366 43.58 102.378C43.7145 102.41 43.8549 102.434 43.9894 102.465C44.3291 102.543 44.67 102.618 45.0168 102.684C45.1065 102.702 45.1938 102.725 45.2846 102.742C45.4179 102.765 45.5559 102.782 45.6904 102.802C45.9782 102.851 46.2684 102.896 46.5598 102.936C46.6766 102.952 46.7886 102.973 46.9054 102.988C47.0328 103.004 47.1626 103.011 47.29 103.026C47.5601 103.055 47.8302 103.081 48.1027 103.105C48.2349 103.116 48.3634 103.134 48.4955 103.144C48.6182 103.151 48.7421 103.152 48.8648 103.161C49.1384 103.177 49.4109 103.188 49.6858 103.199C49.8262 103.204 49.9654 103.216 50.1057 103.218C50.2178 103.221 50.3287 103.216 50.4408 103.217C50.7404 103.221 51.0377 103.218 51.3361 103.212C51.4847 103.211 51.6322 103.216 51.7808 103.211C51.8669 103.209 51.9531 103.199 52.0415 103.195C52.4107 103.181 52.7788 103.158 53.1468 103.133C53.2955 103.121 53.4453 103.118 53.5939 103.106C53.6399 103.102 53.6848 103.095 53.7308 103.091C54.3571 103.032 54.9764 102.959 55.5863 102.863C55.617 102.859 55.6488 102.857 55.6795 102.852C55.8576 102.825 56.0299 102.785 56.2056 102.753C56.5088 102.7 56.812 102.649 57.1092 102.585C57.3251 102.54 57.5363 102.487 57.7498 102.435C58.0329 102.367 58.316 102.301 58.592 102.225C58.6522 102.209 58.7147 102.196 58.7749 102.181C58.874 102.152 58.9648 102.113 59.0639 102.085C59.5027 101.955 59.9321 101.813 60.3497 101.659C60.5042 101.603 60.6599 101.547 60.8109 101.488C61.3441 101.277 61.8643 101.054 62.3539 100.808C62.4211 100.774 62.4883 100.739 62.5532 100.705C62.7007 100.628 62.8269 100.543 62.9661 100.465C63.169 100.351 63.3754 100.237 63.563 100.116C63.7246 100.014 63.8685 99.9073 64.0195 99.8024C64.1906 99.682 64.3663 99.5637 64.522 99.4402C64.5539 99.4145 64.5928 99.3929 64.6235 99.3672C64.8335 99.1974 65.0269 99.0246 65.2109 98.8507C65.2487 98.8137 65.2805 98.7787 65.3171 98.7427C65.4256 98.6357 65.5377 98.5266 65.6368 98.4176C65.6804 98.3692 65.7087 98.3188 65.75 98.2715C65.8904 98.1069 66.0143 97.9423 66.1334 97.7756C66.183 97.7036 66.249 97.6367 66.295 97.5647C66.3174 97.5287 66.3304 97.4927 66.3528 97.4566C66.4437 97.3095 66.518 97.1603 66.5923 97.0112C66.6359 96.9247 66.6937 96.8404 66.7303 96.7539C66.7433 96.7251 66.7468 96.6963 66.7586 96.6675C66.8176 96.5255 66.8577 96.3805 66.9002 96.2364C66.9285 96.1408 66.9721 96.0482 66.9945 95.9525C67.0004 95.9268 66.9981 95.901 67.0052 95.8764C67.037 95.7241 67.0488 95.5728 67.0641 95.4216C67.0736 95.3249 67.0984 95.2292 67.1019 95.1335C67.1031 95.0944 67.1042 95.0543 67.1042 95.0152C67.1042 95.0121 67.1042 95.0111 67.1042 95.009C67.1066 94.0368 67.1101 93.0635 67.1125 92.0923C67.1125 92.224 67.0877 92.3557 67.0748 92.4884Z" fill="#250F8A"/>
<mask id="mask0" mask-type="alpha" maskUnits="userSpaceOnUse" x="34" y="91" width="33" height="12">
<path fill-rule="evenodd" clip-rule="evenodd" d="M34.2276 94.3827C34.2206 96.5265 35.8028 98.6734 38.9696 100.309C45.2591 103.558 55.4231 103.558 61.6698 100.309C64.7729 98.6961 66.3273 96.5845 66.3331 94.4697C66.3354 93.4905 66.34 92.5114 66.3423 91.5322C66.3354 93.647 64.7821 95.7597 61.6791 97.3709C55.4312 100.619 45.2672 100.619 38.98 97.3709C35.8109 95.7369 34.2299 93.589 34.2357 91.4473" fill="white"/>
</mask>
<g mask="url(#mask0)">
<path fill-rule="evenodd" clip-rule="evenodd" d="M66.3421 91.5363L66.3328 94.4737C66.3328 94.5152 66.3317 94.5566 66.3305 94.5991L66.3409 91.6627C66.3409 91.6202 66.3421 91.5777 66.3421 91.5363Z" fill="#872D24"/>
</g>
<mask id="mask1" mask-type="alpha" maskUnits="userSpaceOnUse" x="34" y="91" width="33" height="12">
<path fill-rule="evenodd" clip-rule="evenodd" d="M34.2276 94.3827C34.2206 96.5265 35.8028 98.6734 38.9696 100.309C45.2591 103.558 55.4231 103.558 61.6698 100.309C64.7729 98.6961 66.3273 96.5845 66.3331 94.4697C66.3354 93.4905 66.34 92.5114 66.3423 91.5322C66.3354 93.647 64.7821 95.7597 61.6791 97.3709C55.4312 100.619 45.2672 100.619 38.98 97.3709C35.8109 95.7369 34.2299 93.589 34.2357 91.4473" fill="white"/>
</mask>
<g mask="url(#mask1)">
<path fill-rule="evenodd" clip-rule="evenodd" d="M66.3405 91.6592L66.3312 94.5956C66.322 94.8712 66.2872 95.1458 66.2258 95.4204L66.2351 92.4819C66.2965 92.2094 66.3312 91.9338 66.3405 91.6592Z" fill="#250F8A"/>
</g>
<path fill-rule="evenodd" clip-rule="evenodd" d="M66.2352 92.4822L66.2259 95.4207C66.1646 95.6911 66.0777 95.9605 65.9665 96.2279L65.9758 93.2904C66.087 93.0241 66.1738 92.7547 66.2352 92.4822Z" fill="#250F8A"/>
<path fill-rule="evenodd" clip-rule="evenodd" d="M65.9756 93.2906L65.9664 96.2281C65.8505 96.5048 65.7081 96.7763 65.5389 97.0446L65.5482 94.1071C65.7173 93.8377 65.8598 93.5652 65.9756 93.2906Z" fill="#250F8A"/>
<path fill-rule="evenodd" clip-rule="evenodd" d="M65.5481 94.1073L65.5389 97.0448C65.3547 97.3359 65.1392 97.6219 64.8925 97.9027L64.9018 94.9663C65.1485 94.6844 65.3639 94.3995 65.5481 94.1073Z" fill="#250F8A"/>
<path fill-rule="evenodd" clip-rule="evenodd" d="M64.9017 94.9659L64.8924 97.9024C64.604 98.2288 64.2728 98.55 63.8975 98.8598L63.9067 95.9223C64.282 95.6125 64.6133 95.2934 64.9017 94.9659Z" fill="#250F8A"/>
<path fill-rule="evenodd" clip-rule="evenodd" d="M63.9063 95.9222L63.8982 98.8597C63.3225 99.3353 62.6449 99.786 61.8654 100.207L61.8746 97.2692C62.653 96.8496 63.3306 96.3978 63.9063 95.9222Z" fill="#250F8A"/>
<path fill-rule="evenodd" clip-rule="evenodd" d="M61.8741 97.2688L61.8648 100.206C61.8011 100.24 61.7351 100.275 61.6691 100.31C60.5988 100.866 59.4139 101.326 58.1548 101.693L58.163 98.7557C59.4232 98.3889 60.6093 97.9278 61.6784 97.3714C61.7455 97.3372 61.8092 97.303 61.8741 97.2688Z" fill="#250F8A"/>
<path fill-rule="evenodd" clip-rule="evenodd" d="M58.1634 98.7556L58.1542 101.693C57.18 101.975 56.1607 102.201 55.1148 102.369L55.1229 99.4322C56.17 99.2633 57.1893 99.0374 58.1634 98.7556Z" fill="#250F8A"/>
<path fill-rule="evenodd" clip-rule="evenodd" d="M55.1235 99.4329L55.1154 102.369C54.4424 102.477 53.7579 102.563 53.0676 102.625L53.0757 99.6867C53.7672 99.6266 54.4517 99.5406 55.1235 99.4329Z" fill="#250F8A"/>
<path fill-rule="evenodd" clip-rule="evenodd" d="M53.0761 99.6862L53.068 102.625C52.4772 102.676 51.883 102.712 51.2877 102.73L51.2958 99.7939C51.8934 99.7753 52.4865 99.739 53.0761 99.6862Z" fill="#250F8A"/>
<path fill-rule="evenodd" clip-rule="evenodd" d="M51.2962 99.7938L51.287 102.73C50.7391 102.748 50.1901 102.75 49.6422 102.738L49.6515 99.8011C50.1993 99.8135 50.7484 99.8104 51.2962 99.7938Z" fill="#250F8A"/>
<path fill-rule="evenodd" clip-rule="evenodd" d="M49.6516 99.8005L49.6423 102.737C49.1142 102.726 48.586 102.7 48.0613 102.663L48.0705 99.7249C48.5952 99.7632 49.1234 99.7881 49.6516 99.8005Z" fill="#250F8A"/>
<path fill-rule="evenodd" clip-rule="evenodd" d="M48.0708 99.7247L48.0615 102.663C47.5379 102.624 47.0167 102.571 46.5001 102.506L46.5094 99.5682C47.026 99.6335 47.5472 99.6864 48.0708 99.7247Z" fill="#250F8A"/>
<path fill-rule="evenodd" clip-rule="evenodd" d="M46.5099 99.5679L46.5006 102.505C45.9643 102.437 45.4327 102.355 44.9091 102.258L44.9172 99.3213C45.4419 99.4177 45.9724 99.4995 46.5099 99.5679Z" fill="#250F8A"/>
<path fill-rule="evenodd" clip-rule="evenodd" d="M44.9177 99.3211L44.9084 102.258C44.3409 102.153 43.7826 102.03 43.2347 101.891L43.2439 98.9543C43.7918 99.0932 44.3501 99.2144 44.9177 99.3211Z" fill="#250F8A"/>
<path fill-rule="evenodd" clip-rule="evenodd" d="M43.2436 98.9541L43.2343 101.892C42.566 101.721 41.9139 101.524 41.2861 101.303L41.2942 98.3656C41.9231 98.5873 42.5741 98.7842 43.2436 98.9541Z" fill="#250F8A"/>
<path fill-rule="evenodd" clip-rule="evenodd" d="M41.2947 98.3648L41.2854 101.302C40.4711 101.014 39.6951 100.684 38.97 100.31C35.802 98.6735 34.221 96.5266 34.2268 94.3818L34.236 91.4464C34.2291 93.5892 35.8113 95.7361 38.9792 97.3711C39.7043 97.7451 40.4792 98.0777 41.2947 98.3648Z" fill="#250F8A"/>
<path fill-rule="evenodd" clip-rule="evenodd" d="M57.6774 95.8189H64.7468C67.7799 92.7241 66.7661 88.8517 61.6916 86.267C58.1925 84.4835 53.5036 83.6895 48.9488 83.8777L42.8267 88.253L57.6774 95.8189Z" fill="#02ECF1"/>
<path fill-rule="evenodd" clip-rule="evenodd" d="M57.6775 95.819L42.8267 88.2532L48.9488 83.8778C45.262 84.029 41.6627 84.821 38.851 86.263C32.567 89.4874 32.6008 94.7144 38.9326 97.9409C45.2574 101.164 55.4822 101.164 61.7662 97.9409C63.0118 97.3032 63.9976 96.5832 64.7468 95.819H57.6775Z" fill="#02ECF1"/>
<path fill-rule="evenodd" clip-rule="evenodd" d="M57.7826 62.7774L59.9255 61.6779L59.8194 94.7203L57.6777 95.8188L57.7826 62.7774Z" fill="#4F34CE"/>
<path fill-rule="evenodd" clip-rule="evenodd" d="M42.9335 55.2079L45.0752 54.1094L59.9259 61.6773L57.7831 62.7768L42.9335 55.2079Z" fill="#263543"/>
<path fill-rule="evenodd" clip-rule="evenodd" d="M57.7826 62.7772L57.6777 95.8187L42.827 88.2529L42.9331 55.2083L57.7826 62.7772Z" fill="#250F8A"/>
<path fill-rule="evenodd" clip-rule="evenodd" d="M2.64867 2.08508C2.65333 2.08508 2.65799 2.08405 2.66149 2.08302C2.57293 2.10051 2.49719 2.13754 2.41446 2.16325C2.49253 2.13959 2.56477 2.10154 2.64867 2.08508ZM4.01314 2.18588C4.01547 2.18588 4.01664 2.18691 4.0178 2.18691C3.93624 2.16325 3.86283 2.15811 3.78243 2.14166C3.8605 2.15811 3.9339 2.16325 4.01314 2.18588ZM3.30702 2.05309H3.31867C3.22545 2.04692 3.14156 2.06234 3.053 2.06337C3.13806 2.06234 3.2173 2.04692 3.30702 2.05309ZM99.3607 103.637C99.3875 103.583 99.4049 103.516 99.4271 103.459C99.3921 103.548 99.3688 103.652 99.3245 103.733C99.3409 103.705 99.3467 103.667 99.3607 103.637ZM99.1707 103.946C99.1055 104.038 99.0484 104.14 98.9715 104.217C99.0484 104.14 99.1055 104.038 99.1707 103.946ZM103.345 52.6933C103.335 52.5493 103.319 52.4043 103.296 52.2572C103.292 52.2305 103.285 52.2047 103.281 52.178C103.276 52.1574 103.271 52.1348 103.268 52.1132C103.254 52.0422 103.243 51.9723 103.227 51.9024C103.202 51.7974 103.176 51.6905 103.144 51.5876C103.119 51.494 103.088 51.4015 103.057 51.3089C103.057 51.3079 103.056 51.3048 103.056 51.3038L103.052 51.2945C103.022 51.203 102.988 51.1124 102.952 51.0209C102.917 50.9314 102.88 50.843 102.841 50.7545C102.803 50.6671 102.762 50.5807 102.72 50.4943C102.715 50.4861 102.712 50.4778 102.707 50.4686C102.704 50.4634 102.7 50.4573 102.698 50.4511C102.662 50.3791 102.626 50.3081 102.588 50.2372C102.542 50.1508 102.494 50.0654 102.445 49.9811C102.394 49.8936 102.341 49.8072 102.287 49.7219C102.274 49.7023 102.259 49.6818 102.246 49.6612C102.238 49.6489 102.229 49.6365 102.221 49.6252C102.185 49.5697 102.149 49.5131 102.111 49.4586C102.048 49.367 101.981 49.2765 101.913 49.186C101.839 49.0893 101.763 48.9927 101.685 48.8991C101.682 48.896 101.678 48.8919 101.675 48.8877C101.668 48.8785 101.659 48.8692 101.65 48.86C101.571 48.7653 101.492 48.6728 101.408 48.5823C101.288 48.4527 101.164 48.3272 101.037 48.2058C101.034 48.2038 101.03 48.2007 101.027 48.1986C100.868 48.0485 100.7 47.9189 100.531 47.7872C100.454 47.7234 100.38 47.6535 100.3 47.5949C100.047 47.4128 99.786 47.2514 99.518 47.1156L8.40022 0.679625C8.33614 0.647741 8.27438 0.617913 8.21146 0.589115C8.06231 0.520203 7.91433 0.460549 7.76984 0.410151C7.73022 0.39678 7.69177 0.388552 7.65215 0.376209C7.62885 0.367981 7.60555 0.36181 7.58224 0.353582C7.5368 0.342268 7.49135 0.324783 7.44708 0.313469C7.35386 0.29187 7.26181 0.2713 7.17208 0.2569C7.08935 0.242501 7.00779 0.231187 6.92855 0.223987C6.91923 0.222959 6.90991 0.222959 6.89942 0.22193H6.87728C6.81902 0.217816 6.76193 0.213702 6.70483 0.213702C6.63492 0.212674 6.565 0.214731 6.49626 0.218845C6.431 0.22193 6.36342 0.22913 6.29933 0.240444C6.28069 0.242501 6.26438 0.246615 6.24573 0.250729C6.23641 0.252786 6.22709 0.253815 6.21893 0.255872C6.18281 0.263071 6.14553 0.267185 6.11057 0.275414C6.04765 0.29187 5.98706 0.308327 5.92763 0.328897C5.8682 0.348439 5.80878 0.372095 5.75168 0.39678C5.72022 0.411179 5.68993 0.426607 5.65963 0.441007C5.06537 0.746479 4.46994 1.05092 3.87568 1.35742C3.28025 1.6629 2.68599 1.96837 2.09056 2.27281C2.09289 2.27076 2.09522 2.27076 2.09756 2.26973C1.40425 2.62149 0.971954 3.37745 0.968458 4.45329L0.815815 52.0145C0.811154 53.547 1.68274 55.3058 2.947 56.5894C3.46203 57.1129 4.03648 57.5675 4.65288 57.8802L95.7707 104.317C96.3311 104.602 96.8601 104.744 97.3414 104.77C97.9018 104.801 98.3819 104.652 98.7629 104.368C98.6791 104.43 98.6033 104.505 98.5089 104.553C98.6872 104.46 98.8666 104.37 99.0449 104.278C99.0985 104.25 99.1696 104.214 99.2232 104.188C99.6998 103.943 100.175 103.698 100.651 103.454C101.068 103.241 101.484 103.027 101.901 102.813C101.954 102.786 102.026 102.749 102.08 102.721C102.77 102.367 103.198 101.614 103.201 100.542L103.354 52.9803C103.354 52.8856 103.35 52.79 103.345 52.6933Z" fill="#250F8A"/>
<mask id="mask2" mask-type="alpha" maskUnits="userSpaceOnUse" x="1" y="0" width="8" height="3">
<path fill-rule="evenodd" clip-rule="evenodd" d="M5.42163 0.436323C4.82054 0.745095 4.21827 1.05283 3.616 1.35953C3.01373 1.66623 2.41381 1.97396 1.81036 2.28066C2.51753 1.91905 3.49696 1.97086 4.58128 2.52105L8.19255 0.677745C7.56199 0.357576 6.96797 0.206299 6.44113 0.206299C6.06162 0.206299 5.71746 0.285046 5.42163 0.436323Z" fill="white"/>
</mask>
<g mask="url(#mask2)">
<path fill-rule="evenodd" clip-rule="evenodd" d="M1.81061 2.28074L5.4207 0.436403C5.45134 0.421897 5.48198 0.406355 5.51381 0.393921L1.90254 2.23723C1.87072 2.25173 1.84007 2.2652 1.81061 2.28074Z" fill="#1A242E"/>
</g>
<mask id="mask3" mask-type="alpha" maskUnits="userSpaceOnUse" x="1" y="0" width="8" height="3">
<path fill-rule="evenodd" clip-rule="evenodd" d="M5.42163 0.436323C4.82054 0.745095 4.21827 1.05283 3.616 1.35953C3.01373 1.66623 2.41381 1.97396 1.81036 2.28066C2.51753 1.91905 3.49696 1.97086 4.58128 2.52105L8.19255 0.677745C7.56199 0.357576 6.96797 0.206299 6.44113 0.206299C6.06162 0.206299 5.71746 0.285046 5.42163 0.436323Z" fill="white"/>
</mask>
<g mask="url(#mask3)">
<path fill-rule="evenodd" clip-rule="evenodd" d="M1.90204 2.24195L5.5133 0.398643C5.57106 0.370667 5.63117 0.348908 5.69245 0.327148L2.08119 2.17356C2.02108 2.19325 1.96097 2.21708 1.90204 2.24195Z" fill="#1B252F"/>
</g>
<mask id="mask4" mask-type="alpha" maskUnits="userSpaceOnUse" x="1" y="0" width="8" height="3">
<path fill-rule="evenodd" clip-rule="evenodd" d="M5.42163 0.436323C4.82054 0.745095 4.21827 1.05283 3.616 1.35953C3.01373 1.66623 2.41381 1.97396 1.81036 2.28066C2.51753 1.91905 3.49696 1.97086 4.58128 2.52105L8.19255 0.677745C7.56199 0.357576 6.96797 0.206299 6.44113 0.206299C6.06162 0.206299 5.71746 0.285046 5.42163 0.436323Z" fill="white"/>
</mask>
<g mask="url(#mask4)">
<path fill-rule="evenodd" clip-rule="evenodd" d="M2.08167 2.17093L5.69175 0.32555C5.75186 0.304827 5.81432 0.288249 5.87679 0.273743L2.26553 2.11808C2.20306 2.13259 2.14177 2.1502 2.08167 2.17093Z" fill="#1C2631"/>
</g>
<mask id="mask5" mask-type="alpha" maskUnits="userSpaceOnUse" x="1" y="0" width="8" height="3">
<path fill-rule="evenodd" clip-rule="evenodd" d="M5.42163 0.436323C4.82054 0.745095 4.21827 1.05283 3.616 1.35953C3.01373 1.66623 2.41381 1.97396 1.81036 2.28066C2.51753 1.91905 3.49696 1.97086 4.58128 2.52105L8.19255 0.677745C7.56199 0.357576 6.96797 0.206299 6.44113 0.206299C6.06162 0.206299 5.71746 0.285046 5.42163 0.436323Z" fill="white"/>
</mask>
<g mask="url(#mask5)">
<path fill-rule="evenodd" clip-rule="evenodd" d="M2.26575 2.11675L5.87583 0.272409C5.93948 0.25583 6.00312 0.243397 6.06795 0.235107L2.45668 2.07945C2.39186 2.08981 2.32821 2.10121 2.26575 2.11675Z" fill="#1D2732"/>
</g>
<mask id="mask6" mask-type="alpha" maskUnits="userSpaceOnUse" x="1" y="0" width="8" height="3">
<path fill-rule="evenodd" clip-rule="evenodd" d="M5.42163 0.436323C4.82054 0.745095 4.21827 1.05283 3.616 1.35953C3.01373 1.66623 2.41381 1.97396 1.81036 2.28066C2.51753 1.91905 3.49696 1.97086 4.58128 2.52105L8.19255 0.677745C7.56199 0.357576 6.96797 0.206299 6.44113 0.206299C6.06162 0.206299 5.71746 0.285046 5.42163 0.436323Z" fill="white"/>
</mask>
<g mask="url(#mask6)">
<path fill-rule="evenodd" clip-rule="evenodd" d="M2.4563 2.07844L6.06757 0.2341C6.1324 0.224775 6.20076 0.217522 6.26676 0.212341L2.65666 2.05668C2.5883 2.06083 2.5223 2.06912 2.4563 2.07844Z" fill="#1D2934"/>
</g>
<mask id="mask7" mask-type="alpha" maskUnits="userSpaceOnUse" x="1" y="0" width="8" height="3">
<path fill-rule="evenodd" clip-rule="evenodd" d="M5.42163 0.436323C4.82054 0.745095 4.21827 1.05283 3.616 1.35953C3.01373 1.66623 2.41381 1.97396 1.81036 2.28066C2.51753 1.91905 3.49696 1.97086 4.58128 2.52105L8.19255 0.677745C7.56199 0.357576 6.96797 0.206299 6.44113 0.206299C6.06162 0.206299 5.71746 0.285046 5.42163 0.436323Z" fill="white"/>
</mask>
<g mask="url(#mask7)">
<path fill-rule="evenodd" clip-rule="evenodd" d="M2.6571 2.05692L6.2672 0.212577C6.33674 0.207396 6.40746 0.20636 6.47817 0.20636L2.86808 2.0507C2.79618 2.0507 2.72664 2.05174 2.6571 2.05692Z" fill="#1E2A35"/>
</g>
<mask id="mask8" mask-type="alpha" maskUnits="userSpaceOnUse" x="1" y="0" width="8" height="3">
<path fill-rule="evenodd" clip-rule="evenodd" d="M5.42163 0.436323C4.82054 0.745095 4.21827 1.05283 3.616 1.35953C3.01373 1.66623 2.41381 1.97396 1.81036 2.28066C2.51753 1.91905 3.49696 1.97086 4.58128 2.52105L8.19255 0.677745C7.56199 0.357576 6.96797 0.206299 6.44113 0.206299C6.06162 0.206299 5.71746 0.285046 5.42163 0.436323Z" fill="white"/>
</mask>
<g mask="url(#mask8)">
<path fill-rule="evenodd" clip-rule="evenodd" d="M2.8678 2.05082L6.47791 0.206482C6.55216 0.207518 6.62759 0.212699 6.7042 0.21788L3.09291 2.06325C3.0163 2.05704 2.94205 2.05186 2.8678 2.05082Z" fill="#1F2B37"/>
</g>
<mask id="mask9" mask-type="alpha" maskUnits="userSpaceOnUse" x="1" y="0" width="8" height="3">
<path fill-rule="evenodd" clip-rule="evenodd" d="M5.42163 0.436323C4.82054 0.745095 4.21827 1.05283 3.616 1.35953C3.01373 1.66623 2.41381 1.97396 1.81036 2.28066C2.51753 1.91905 3.49696 1.97086 4.58128 2.52105L8.19255 0.677745C7.56199 0.357576 6.96797 0.206299 6.44113 0.206299C6.06162 0.206299 5.71746 0.285046 5.42163 0.436323Z" fill="white"/>
</mask>
<g mask="url(#mask9)">
<path fill-rule="evenodd" clip-rule="evenodd" d="M3.09338 2.06358L6.70347 0.219238C6.78479 0.226491 6.86729 0.236853 6.9498 0.250323L3.33853 2.09466C3.25603 2.08223 3.17353 2.07083 3.09338 2.06358Z" fill="#202C38"/>
</g>
<mask id="mask10" mask-type="alpha" maskUnits="userSpaceOnUse" x="1" y="0" width="8" height="3">
<path fill-rule="evenodd" clip-rule="evenodd" d="M5.42163 0.436323C4.82054 0.745095 4.21827 1.05283 3.616 1.35953C3.01373 1.66623 2.41381 1.97396 1.81036 2.28066C2.51753 1.91905 3.49696 1.97086 4.58128 2.52105L8.19255 0.677745C7.56199 0.357576 6.96797 0.206299 6.44113 0.206299C6.06162 0.206299 5.71746 0.285046 5.42163 0.436323Z" fill="white"/>
</mask>
<g mask="url(#mask10)">
<path fill-rule="evenodd" clip-rule="evenodd" d="M3.33911 2.09617L6.95038 0.251831C7.04231 0.267373 7.13424 0.28706 7.22853 0.309855L3.61726 2.15523C3.52297 2.1314 3.42986 2.11378 3.33911 2.09617Z" fill="#212D3A"/>
</g>
<path fill-rule="evenodd" clip-rule="evenodd" d="M5.42163 0.436323C4.82054 0.745095 4.21827 1.05283 3.616 1.35953C3.01373 1.66623 2.41381 1.97396 1.81036 2.28066C2.51753 1.91905 3.49696 1.97086 4.58128 2.52105L8.19255 0.677745C7.56199 0.357576 6.96797 0.206299 6.44113 0.206299C6.06162 0.206299 5.71746 0.285046 5.42163 0.436323Z" fill="#250F8A"/>
<mask id="mask11" mask-type="alpha" maskUnits="userSpaceOnUse" x="1" y="0" width="8" height="3">
<path fill-rule="evenodd" clip-rule="evenodd" d="M5.42163 0.436323C4.82054 0.745095 4.21827 1.05283 3.616 1.35953C3.01373 1.66623 2.41381 1.97396 1.81036 2.28066C2.51753 1.91905 3.49696 1.97086 4.58128 2.52105L8.19255 0.677745C7.56199 0.357576 6.96797 0.206299 6.44113 0.206299C6.06162 0.206299 5.71746 0.285046 5.42163 0.436323Z" fill="white"/>
</mask>
<g mask="url(#mask11)">
<path fill-rule="evenodd" clip-rule="evenodd" d="M3.617 2.15745L7.22826 0.31311C7.33552 0.34005 7.44395 0.372171 7.55474 0.409472L3.94348 2.25485C3.83387 2.21858 3.72426 2.18439 3.617 2.15745Z" fill="#250F8A"/>
</g>
<path fill-rule="evenodd" clip-rule="evenodd" d="M3.94397 2.25041L7.55407 0.406067C7.70139 0.455802 7.8499 0.514862 8.00194 0.586356L4.39066 2.4307C4.2398 2.36024 4.0913 2.30014 3.94397 2.25041Z" fill="#250F8A"/>
<path fill-rule="evenodd" clip-rule="evenodd" d="M4.39117 2.43034L8.00126 0.585999C8.06608 0.613975 8.12737 0.644023 8.19337 0.678216L4.58093 2.52152C4.51729 2.49044 4.45482 2.45728 4.39117 2.43034Z" fill="#250F8A"/>
<mask id="mask12" mask-type="alpha" maskUnits="userSpaceOnUse" x="98" y="100" width="6" height="5">
<path fill-rule="evenodd" clip-rule="evenodd" d="M99.3984 102.225C99.3972 103.358 98.9417 104.155 98.2079 104.531C98.3972 104.435 98.5878 104.337 98.7759 104.24C98.8341 104.211 98.9096 104.172 98.9665 104.142C99.4727 103.885 99.9776 103.626 100.484 103.367C100.926 103.142 101.369 102.917 101.81 102.691C101.867 102.662 101.943 102.624 102.001 102.594C102.734 102.218 103.188 101.422 103.191 100.287" fill="white"/>
</mask>
<g mask="url(#mask12)">
<path fill-rule="evenodd" clip-rule="evenodd" d="M99.3994 102.225L103.191 100.287C103.189 101.422 102.733 102.219 102.001 102.594L98.2089 104.53C98.9415 104.155 99.3969 103.358 99.3994 102.225Z" fill="#250F8A"/>
</g>
<path fill-rule="evenodd" clip-rule="evenodd" d="M99.7855 54.6554L103.353 52.8295L103.202 100.264L99.6317 102.091L99.7855 54.6554Z" fill="#250F8A"/>
<path fill-rule="evenodd" clip-rule="evenodd" d="M4.86951 2.49473L8.43829 0.669861L99.5203 46.981L95.9503 48.8069L4.86951 2.49473Z" fill="#250F8A"/>
<mask id="mask13" mask-type="alpha" maskUnits="userSpaceOnUse" x="96" y="46" width="8" height="9">
<path fill-rule="evenodd" clip-rule="evenodd" d="M96.1299 48.5249C98.2064 49.617 99.8782 52.2571 99.8725 54.432L103.354 52.5877C103.36 50.4128 101.688 47.7727 99.6122 46.6806" fill="white"/>
</mask>
<g mask="url(#mask13)">
<path fill-rule="evenodd" clip-rule="evenodd" d="M96.1299 48.5247L99.6123 46.6804C100.14 46.957 100.64 47.3342 101.094 47.7787L97.612 49.623C97.1585 49.1785 96.6573 48.8024 96.1299 48.5247Z" fill="#23313E"/>
</g>
<mask id="mask14" mask-type="alpha" maskUnits="userSpaceOnUse" x="96" y="46" width="8" height="9">
<path fill-rule="evenodd" clip-rule="evenodd" d="M96.1299 48.5249C98.2064 49.617 99.8782 52.2571 99.8725 54.432L103.354 52.5877C103.36 50.4128 101.688 47.7727 99.6122 46.6806" fill="white"/>
</mask>
<g mask="url(#mask14)">
<path fill-rule="evenodd" clip-rule="evenodd" d="M97.6122 49.6227L101.093 47.7794C101.218 47.8996 101.339 48.026 101.456 48.1576L97.9737 50.002C97.8577 49.8704 97.7361 49.744 97.6122 49.6227Z" fill="#22303D"/>
</g>
<mask id="mask15" mask-type="alpha" maskUnits="userSpaceOnUse" x="96" y="46" width="8" height="9">
<path fill-rule="evenodd" clip-rule="evenodd" d="M96.1299 48.5249C98.2064 49.617 99.8782 52.2571 99.8725 54.432L103.354 52.5877C103.36 50.4128 101.688 47.7727 99.6122 46.6806" fill="white"/>
</mask>
<g mask="url(#mask15)">
<path fill-rule="evenodd" clip-rule="evenodd" d="M97.9741 50.002L101.455 48.1577C101.55 48.2613 101.639 48.368 101.727 48.4768L98.2446 50.3222C98.1571 50.2123 98.0673 50.1056 97.9741 50.002Z" fill="#222E3B"/>
</g>
<mask id="mask16" mask-type="alpha" maskUnits="userSpaceOnUse" x="96" y="46" width="8" height="9">
<path fill-rule="evenodd" clip-rule="evenodd" d="M96.1299 48.5249C98.2064 49.617 99.8782 52.2571 99.8725 54.432L103.354 52.5877C103.36 50.4128 101.688 47.7727 99.6122 46.6806" fill="white"/>
</mask>
<g mask="url(#mask16)">
<path fill-rule="evenodd" clip-rule="evenodd" d="M98.2444 50.3218L101.727 48.4774C101.803 48.5717 101.877 48.667 101.948 48.7665L98.4671 50.6108C98.3955 50.5134 98.3205 50.416 98.2444 50.3218Z" fill="#212D3A"/>
</g>
<mask id="mask17" mask-type="alpha" maskUnits="userSpaceOnUse" x="96" y="46" width="8" height="9">
<path fill-rule="evenodd" clip-rule="evenodd" d="M96.1299 48.5249C98.2064 49.617 99.8782 52.2571 99.8725 54.432L103.354 52.5877C103.36 50.4128 101.688 47.7727 99.6122 46.6806" fill="white"/>
</mask>
<g mask="url(#mask17)">
<path fill-rule="evenodd" clip-rule="evenodd" d="M98.4675 50.611L101.949 48.7667C102.015 48.8568 102.079 48.948 102.141 49.0392L98.6595 50.8845C98.597 50.7923 98.5334 50.7011 98.4675 50.611Z" fill="#202C38"/>
</g>
<mask id="mask18" mask-type="alpha" maskUnits="userSpaceOnUse" x="96" y="46" width="8" height="9">
<path fill-rule="evenodd" clip-rule="evenodd" d="M96.1299 48.5249C98.2064 49.617 99.8782 52.2571 99.8725 54.432L103.354 52.5877C103.36 50.4128 101.688 47.7727 99.6122 46.6806" fill="white"/>
</mask>
<g mask="url(#mask18)">
<path fill-rule="evenodd" clip-rule="evenodd" d="M98.6594 50.8843L102.14 49.04C102.201 49.1281 102.258 49.2161 102.313 49.3063L98.8298 51.1506C98.7753 51.0605 98.7185 50.9724 98.6594 50.8843Z" fill="#1F2B37"/>
</g>
<mask id="mask19" mask-type="alpha" maskUnits="userSpaceOnUse" x="96" y="46" width="8" height="9">
<path fill-rule="evenodd" clip-rule="evenodd" d="M96.1299 48.5249C98.2064 49.617 99.8782 52.2571 99.8725 54.432L103.354 52.5877C103.36 50.4128 101.688 47.7727 99.6122 46.6806" fill="white"/>
</mask>
<g mask="url(#mask19)">
<path fill-rule="evenodd" clip-rule="evenodd" d="M98.8303 51.1507L102.313 49.3063C102.366 49.3923 102.417 49.4794 102.467 49.5674L98.9849 51.4108C98.936 51.3237 98.8837 51.2356 98.8303 51.1507Z" fill="#1E2A35"/>
</g>
<mask id="mask20" mask-type="alpha" maskUnits="userSpaceOnUse" x="96" y="46" width="8" height="9">
<path fill-rule="evenodd" clip-rule="evenodd" d="M96.1299 48.5249C98.2064 49.617 99.8782 52.2571 99.8725 54.432L103.354 52.5877C103.36 50.4128 101.688 47.7727 99.6122 46.6806" fill="white"/>
</mask>
<g mask="url(#mask20)">
<path fill-rule="evenodd" clip-rule="evenodd" d="M98.9847 51.4106L102.467 49.5673C102.515 49.6523 102.562 49.7372 102.607 49.8243L99.1256 51.6697C99.0801 51.5816 99.0336 51.4956 98.9847 51.4106Z" fill="#1D2934"/>
</g>
<mask id="mask21" mask-type="alpha" maskUnits="userSpaceOnUse" x="96" y="46" width="8" height="9">
<path fill-rule="evenodd" clip-rule="evenodd" d="M96.1299 48.5249C98.2064 49.617 99.8782 52.2571 99.8725 54.432L103.354 52.5877C103.36 50.4128 101.688 47.7727 99.6122 46.6806" fill="white"/>
</mask>
<g mask="url(#mask21)">
<path fill-rule="evenodd" clip-rule="evenodd" d="M99.1251 51.6695L102.606 49.8242C102.653 49.9102 102.695 49.9972 102.736 50.0832L99.2535 51.9275C99.2126 51.8415 99.1694 51.7555 99.1251 51.6695Z" fill="#1D2732"/>
</g>
<mask id="mask22" mask-type="alpha" maskUnits="userSpaceOnUse" x="96" y="46" width="8" height="9">
<path fill-rule="evenodd" clip-rule="evenodd" d="M96.1299 48.5249C98.2064 49.617 99.8782 52.2571 99.8725 54.432L103.354 52.5877C103.36 50.4128 101.688 47.7727 99.6122 46.6806" fill="white"/>
</mask>
<g mask="url(#mask22)">
<path fill-rule="evenodd" clip-rule="evenodd" d="M99.2538 51.9275L102.735 50.0832C102.777 50.1702 102.817 50.2583 102.854 50.3464L99.3709 52.1918C99.3345 52.1026 99.2948 52.0156 99.2538 51.9275Z" fill="#1C2631"/>
</g>
<mask id="mask23" mask-type="alpha" maskUnits="userSpaceOnUse" x="96" y="46" width="8" height="9">
<path fill-rule="evenodd" clip-rule="evenodd" d="M96.1299 48.5249C98.2064 49.617 99.8782 52.2571 99.8725 54.432L103.354 52.5877C103.36 50.4128 101.688 47.7727 99.6122 46.6806" fill="white"/>
</mask>
<g mask="url(#mask23)">
<path fill-rule="evenodd" clip-rule="evenodd" d="M99.3708 52.1916L102.854 50.3463C102.892 50.4354 102.927 50.5245 102.962 50.6136L99.48 52.459C99.4459 52.3688 99.4106 52.2797 99.3708 52.1916Z" fill="#1B252F"/>
</g>
<mask id="mask24" mask-type="alpha" maskUnits="userSpaceOnUse" x="96" y="46" width="8" height="9">
<path fill-rule="evenodd" clip-rule="evenodd" d="M96.1299 48.5249C98.2064 49.617 99.8782 52.2571 99.8725 54.432L103.354 52.5877C103.36 50.4128 101.688 47.7727 99.6122 46.6806" fill="white"/>
</mask>
<g mask="url(#mask24)">
<path fill-rule="evenodd" clip-rule="evenodd" d="M99.4797 52.459L102.962 50.6136C102.997 50.7059 103.03 50.7981 103.06 50.8903L99.5774 52.7357C99.5479 52.6424 99.5149 52.5502 99.4797 52.459Z" fill="#1A242E"/>
</g>
<mask id="mask25" mask-type="alpha" maskUnits="userSpaceOnUse" x="96" y="46" width="8" height="9">
<path fill-rule="evenodd" clip-rule="evenodd" d="M96.1299 48.5249C98.2064 49.617 99.8782 52.2571 99.8725 54.432L103.354 52.5877C103.36 50.4128 101.688 47.7727 99.6122 46.6806" fill="white"/>
</mask>
<g mask="url(#mask25)">
<path fill-rule="evenodd" clip-rule="evenodd" d="M99.5778 52.7351L103.06 50.8908C103.093 50.9872 103.123 51.0856 103.15 51.184L99.6687 53.0284C99.6415 52.9299 99.6108 52.8336 99.5778 52.7351Z" fill="#19232C"/>
</g>
<mask id="mask26" mask-type="alpha" maskUnits="userSpaceOnUse" x="96" y="46" width="8" height="9">
<path fill-rule="evenodd" clip-rule="evenodd" d="M96.1299 48.5249C98.2064 49.617 99.8782 52.2571 99.8725 54.432L103.354 52.5877C103.36 50.4128 101.688 47.7727 99.6122 46.6806" fill="white"/>
</mask>
<g mask="url(#mask26)">
<path fill-rule="evenodd" clip-rule="evenodd" d="M99.6683 53.0287L103.149 51.1844C103.18 51.2901 103.206 51.3958 103.23 51.5014L99.7478 53.3468C99.7251 53.2411 99.6967 53.1355 99.6683 53.0287Z" fill="#18222B"/>
</g>
<mask id="mask27" mask-type="alpha" maskUnits="userSpaceOnUse" x="96" y="46" width="8" height="9">
<path fill-rule="evenodd" clip-rule="evenodd" d="M96.1299 48.5249C98.2064 49.617 99.8782 52.2571 99.8725 54.432L103.354 52.5877C103.36 50.4128 101.688 47.7727 99.6122 46.6806" fill="white"/>
</mask>
<g mask="url(#mask27)">
<path fill-rule="evenodd" clip-rule="evenodd" d="M99.7476 53.3464L103.23 51.502C103.256 51.6212 103.279 51.7393 103.297 51.8584L99.8158 53.7038C99.7965 53.5847 99.7749 53.4655 99.7476 53.3464Z" fill="#182029"/>
</g>
<path fill-rule="evenodd" clip-rule="evenodd" d="M96.1299 48.5249C98.2064 49.617 99.8782 52.2571 99.8725 54.432L103.354 52.5877C103.36 50.4128 101.688 47.7727 99.6122 46.6806" fill="#250F8A"/>
<mask id="mask28" mask-type="alpha" maskUnits="userSpaceOnUse" x="96" y="46" width="8" height="9">
<path fill-rule="evenodd" clip-rule="evenodd" d="M96.1299 48.5249C98.2064 49.617 99.8782 52.2571 99.8725 54.432L103.354 52.5877C103.36 50.4128 101.688 47.7727 99.6122 46.6806" fill="white"/>
</mask>
<g mask="url(#mask28)">
<path fill-rule="evenodd" clip-rule="evenodd" d="M99.8154 53.7035L103.297 51.8591C103.319 52.0063 103.335 52.1534 103.345 52.3005L99.8632 54.1449C99.8541 53.9988 99.8382 53.8516 99.8154 53.7035Z" fill="#250F8A"/>
</g>
<path fill-rule="evenodd" clip-rule="evenodd" d="M99.8631 54.1445L103.345 52.3002C103.351 52.3965 103.353 52.4919 103.353 52.5872L99.8722 54.4315C99.8722 54.3383 99.8688 54.2409 99.8631 54.1445Z" fill="#250F8A"/>
<path fill-rule="evenodd" clip-rule="evenodd" d="M95.9089 49.0873C98.0369 50.1685 99.7503 52.7832 99.7433 54.9353L99.5907 102.371C99.5837 104.523 97.8587 105.389 95.7319 104.307L4.64992 57.9952C2.52309 56.914 0.808585 54.2983 0.815573 52.1462L0.968155 4.71082C0.975143 2.55975 2.7013 1.69296 4.82812 2.77517L95.9089 49.0873Z" fill="#0AD7DD"/>
<path fill-rule="evenodd" clip-rule="evenodd" d="M95.3477 52.7946L7.61784 8.18622L7.4967 51.2713L95.2091 95.8632L95.3477 52.7946ZM38.9495 35.1533L38.9728 28.0159L90.7528 54.3437L90.7295 61.4811L38.9495 35.1533ZM11.472 21.1821L11.4953 14.0447L34.2393 25.6083L34.2171 32.7468L34.1205 62.5561L11.3753 50.9894L11.472 21.1821ZM38.8528 64.9605L38.9495 35.1533L90.7294 61.4811L90.6328 91.2894L38.8528 64.9605Z" fill="white"/>
<path fill-rule="evenodd" clip-rule="evenodd" d="M53.9287 78.9702L46.4755 75.181L46.4685 77.0643L53.9229 80.8546L53.9287 78.9702Z" fill="#250F8A"/>
<path fill-rule="evenodd" clip-rule="evenodd" d="M34.2389 25.6085L11.4949 14.0448L11.4728 21.1822L34.2168 32.7469L34.2389 25.6085ZM28.732 28.4508L28.746 24.3159L32.8319 26.3942L32.8179 30.5281L28.732 28.4508ZM23.2053 25.6412L23.2181 21.5052L27.304 23.5824L27.2912 27.7184L23.2053 25.6412ZM17.6774 22.8295L17.6902 18.6945L21.7761 20.7717L21.7633 24.9067L17.6774 22.8295Z" fill="#FA7564"/>
<path fill-rule="evenodd" clip-rule="evenodd" d="M34.2166 32.7468L11.4727 21.1821L11.376 50.9894L34.12 62.5562L34.2166 32.7468ZM12.7318 32.1704L12.7539 25.2084L32.8027 35.4037L32.7806 42.3636L12.7318 32.1704ZM12.677 49.0238L12.684 47.2379L32.7316 57.4311L32.7258 59.2181L12.677 49.0238Z" fill="#E5FDFD"/>
<path fill-rule="evenodd" clip-rule="evenodd" d="M90.7291 61.4809L38.9492 35.1531L38.8525 64.9614L90.6324 91.2902L90.7291 61.4809ZM40.3643 46.2191L40.3865 39.2591L89.2825 64.1211L89.2604 71.0821L40.3643 46.2191ZM40.3515 49.793L40.3573 48.0061L89.2545 72.869L89.2487 74.6549L40.3515 49.793ZM40.341 53.3709L40.3469 51.5851L89.2429 76.447L89.2371 78.2339L40.341 53.3709ZM40.3119 62.1854L40.334 55.2224L89.2312 80.0854L89.2091 87.0464L40.3119 62.1854Z" fill="#E5FDFD"/>
<path fill-rule="evenodd" clip-rule="evenodd" d="M90.7524 54.3435L38.9725 28.0157L38.9492 35.1532L90.7291 61.4809L90.7524 54.3435ZM85.2117 57.1693L85.2257 53.0344L89.3116 55.1116L89.2988 59.2465L85.2117 57.1693ZM79.6849 54.3588L79.6978 50.2239L83.7837 52.3021L83.7697 56.4361L79.6849 54.3588ZM74.1571 51.5479L74.1699 47.412L78.2558 49.4902L78.2419 53.6252L74.1571 51.5479Z" fill="#FA7564"/>
<path fill-rule="evenodd" clip-rule="evenodd" d="M89.3118 55.1115L85.2259 53.0343L85.2119 57.1692L89.299 59.2465L89.3118 55.1115Z" fill="#FFCA00"/>
<path fill-rule="evenodd" clip-rule="evenodd" d="M83.7838 52.302L79.6979 50.2248L79.6839 54.3587L83.7698 56.4359L83.7838 52.302Z" fill="white"/>
<path fill-rule="evenodd" clip-rule="evenodd" d="M78.2553 49.4899L74.1694 47.4127L74.1566 51.5486L78.2425 53.6248L78.2553 49.4899Z" fill="white"/>
<path fill-rule="evenodd" clip-rule="evenodd" d="M32.8319 26.3937L28.746 24.3165L28.732 28.4515L32.8179 30.5277L32.8319 26.3937Z" fill="#FFCA00"/>
<path fill-rule="evenodd" clip-rule="evenodd" d="M27.3045 23.5827L23.2186 21.5055L23.2046 25.6415L27.2905 27.7176L27.3045 23.5827Z" fill="white"/>
<path fill-rule="evenodd" clip-rule="evenodd" d="M21.7765 20.772L17.6894 18.6948L17.6766 22.8297L21.7625 24.9069L21.7765 20.772Z" fill="white"/>
<path fill-rule="evenodd" clip-rule="evenodd" d="M32.8029 35.4035L12.7541 25.2092L12.732 32.1712L32.7796 42.3634L32.8029 35.4035Z" fill="white"/>
<path fill-rule="evenodd" clip-rule="evenodd" d="M89.2829 64.1213L40.3868 39.2593L40.3635 46.2193L89.2596 71.0823L89.2829 64.1213Z" fill="white"/>
<path fill-rule="evenodd" clip-rule="evenodd" d="M89.2316 80.0851L40.3344 55.2231L40.3123 62.1851L89.2083 87.0461L89.2316 80.0851Z" fill="white"/>
<path fill-rule="evenodd" clip-rule="evenodd" d="M32.7317 57.4317L12.6841 47.2374L12.6771 49.0243L32.7259 59.2176L32.7317 57.4317Z" fill="#FFCA00"/>
<path fill-rule="evenodd" clip-rule="evenodd" d="M89.2544 72.8686L40.3584 48.0067L40.3514 49.7936L89.2486 74.6545L89.2544 72.8686Z" fill="#FFCA00"/>
<path fill-rule="evenodd" clip-rule="evenodd" d="M89.2424 76.4468L40.3463 51.5848L40.3405 53.3707L89.2377 78.2337L89.2424 76.4468Z" fill="#FFCA00"/>
<path fill-rule="evenodd" clip-rule="evenodd" d="M7.53512 51.1291L5.25543 52.1134L5.39973 6.82172L7.65614 7.9715L7.53512 51.1291Z" fill="#172029"/>
<path fill-rule="evenodd" clip-rule="evenodd" d="M95.1688 95.7968L95.1618 97.9474L5.25488 52.1131L7.53456 51.1288L95.1688 95.7968Z" fill="#263442"/>
</svg>
